<svg xmlns="http://www.w3.org/2000/svg" viewBox="0 0 167 184">
  <defs>
    <radialGradient id="a" cx="45.34%" cy="87.98%" r="107.29%" fx="45.34%" fy="87.98%" gradientTransform="matrix(1 0 0 .73583 0 .23)">
      <stop offset="0%" stop-color="#00D0FE"/>
      <stop offset="69.09%" stop-color="#0093E9"/>
      <stop offset="100%" stop-color="#0077B2"/>
    </radialGradient>
    <radialGradient id="b" cx="26.4%" cy="94.95%" r="112.18%" fx="26.4%" fy="94.95%" gradientTransform="matrix(1 0 0 .73585 0 .25)">
      <stop offset="0%" stop-color="#F79606"/>
      <stop offset="100%" stop-color="#F96603"/>
    </radialGradient>
  </defs>
  <g fill="none" fill-rule="nonzero">
    <path fill="url(#a)" d="M52.33 137.56c-10.04-2.55-15.65-12.2-14.87-22.3 1.43-18.84-3.6-29.88-24.85-39.7-.53-.24-1.04-.5-1.54-.8l-.03-.01c-2-1.15-3.75-2.63-5.2-4.34l-.06-.07c-.35-.41-.69-.84-1-1.29L4.74 69c-.64-.9-1.21-1.86-1.7-2.87a19.63 19.63 0 0 1-.64-1.49l-.06-.16c-.19-.48-.35-.96-.49-1.46a18.96 18.96 0 0 1-.42-1.71l-.02-.12c-.1-.52-.18-1.04-.24-1.57v-.07c-.06-.52-.1-1.04-.1-1.57l-.01-.24c-.01-.5 0-1.02.04-1.53l.01-.27a18 18 0 0 1 .18-1.55l.04-.22a20.84 20.84 0 0 1 .82-3.23l.07-.21c.17-.5.37-.98.58-1.45l.11-.26c.22-.46.45-.92.7-1.36.03-.07.08-.14.12-.2.26-.46.53-.9.83-1.34l.04-.05c.3-.44.62-.86.96-1.27l.07-.1c.34-.4.69-.78 1.05-1.16l.14-.14c.36-.37.73-.72 1.12-1.06l.14-.11c.4-.34.82-.67 1.24-.98l.04-.03c.9-.64 1.85-1.2 2.84-1.7l.07-.04c.48-.24.98-.46 1.49-.65.02-.02.05-.02.08-.03 2.1-.82 4.34-1.28 6.64-1.34h.04c.58-.02 1.16-.01 1.74.02 16.84.71 28.44-3.37 35.47-12.67a44.75 44.75 0 0 0 4.7-8.6l.1-.21c3.4-8.72 11-14.86 19.79-14.7 1.42.02 2.88.19 4.36.56a20 20 0 0 1 14.48 14.47l.13.62c.1.42.2.84.26 1.28.1.62.16 1.24.2 1.88v.06c.1 1.8-.07 3.64-.48 5.47l-.1.52c-2.55 10.04-12.24 16.07-22.3 14.88l-.25-.02a61.16 61.16 0 0 0-13.33.5c-12.96 1.83-21.6 10.3-24.41 20.67-4.06 14.98 3.75 29.3 21.4 36.63 10.13 4.23 17.04 13.6 14.34 24.26a20 20 0 0 1-19.37 15.1 20 20 0 0 1-4.92-.62" transform="matrix(1 0 0 -1 0 139.47)"/>
    <path fill="url(#b)" d="M84.8 183.1c-1.43-.02-2.89-.2-4.37-.57a20 20 0 0 1-14.48-14.46l-.13-.62c-.1-.43-.2-.85-.26-1.28-.1-.62-.16-1.25-.2-1.88v-.07c-.1-1.8.07-3.63.49-5.47l.1-.51c2.54-10.05 12.23-16.07 22.3-14.88l.24.02c4.95.37 9.32.07 13.34-.5 12.95-1.83 21.6-10.31 24.4-20.68 4.06-14.97-3.75-29.29-21.4-36.63C94.7 81.35 87.8 71.97 90.5 61.32a20 20 0 0 1 24.3-14.48c10.03 2.54 15.64 12.19 14.87 22.3-1.44 18.84 3.59 29.88 24.84 39.69.53.24 1.04.5 1.54.8l.03.01c2 1.16 3.75 2.64 5.21 4.35l.05.06c.35.42.69.85 1 1.29l.04.06c.64.9 1.21 1.86 1.7 2.86l.01.03c.23.48.44.97.63 1.46l.06.17c.19.47.35.96.49 1.45l.05.2c.15.5.27 1 .37 1.52l.02.12c.1.52.18 1.03.24 1.57l.01.06c.06.52.08 1.05.1 1.58v.24c.01.5 0 1.01-.03 1.52l-.02.28c-.04.52-.1 1.04-.18 1.55 0 .07-.03.15-.04.22-.09.55-.2 1.09-.33 1.63-.14.55-.3 1.07-.49 1.6l-.07.2c-.17.5-.37.99-.58 1.46l-.11.25c-.22.46-.45.92-.7 1.37l-.12.2c-.26.45-.53.9-.83 1.33a17.73 17.73 0 0 1-1 1.33l-.07.1c-.34.4-.69.78-1.05 1.15l-.14.15c-.36.36-.73.72-1.12 1.05l-.14.12c-.4.34-.81.67-1.24.98l-.03.02c-.9.65-1.86 1.22-2.85 1.71l-.07.03c-.48.24-.98.46-1.49.66l-.08.03c-2.1.81-4.34 1.28-6.64 1.34h-.04c-.57.02-1.15 0-1.74-.03-16.84-.7-28.44 3.37-35.47 12.67a44.85 44.85 0 0 0-4.7 8.61l-.1.2c-3.35 8.62-10.8 14.71-19.46 14.71h-.33" transform="matrix(1 0 0 -1 0 229.32)"/>
  </g>
</svg>